<svg width="21" height="21" viewBox="0 0 21 21" fill="none" xmlns="http://www.w3.org/2000/svg">
<path d="M17.8 2.80005H15.8V1.80005C15.8 1.53483 15.6946 1.28048 15.5071 1.09294C15.3196 0.905406 15.0652 0.800049 14.8 0.800049C14.5348 0.800049 14.2804 0.905406 14.0929 1.09294C13.9053 1.28048 13.8 1.53483 13.8 1.80005V2.80005H7.79999V1.80005C7.79999 1.53483 7.69463 1.28048 7.50709 1.09294C7.31956 0.905406 7.0652 0.800049 6.79999 0.800049C6.53477 0.800049 6.28042 0.905406 6.09288 1.09294C5.90534 1.28048 5.79999 1.53483 5.79999 1.80005V2.80005H3.79999C3.00434 2.80005 2.24128 3.11612 1.67867 3.67873C1.11606 4.24134 0.799988 5.0044 0.799988 5.80005V17.8C0.799988 18.5957 1.11606 19.3588 1.67867 19.9214C2.24128 20.484 3.00434 20.8 3.79999 20.8H17.8C18.5956 20.8 19.3587 20.484 19.9213 19.9214C20.4839 19.3588 20.8 18.5957 20.8 17.8V5.80005C20.8 5.0044 20.4839 4.24134 19.9213 3.67873C19.3587 3.11612 18.5956 2.80005 17.8 2.80005ZM18.8 17.8C18.8 18.0653 18.6946 18.3196 18.5071 18.5072C18.3196 18.6947 18.0652 18.8 17.8 18.8H3.79999C3.53477 18.8 3.28042 18.6947 3.09288 18.5072C2.90534 18.3196 2.79999 18.0653 2.79999 17.8V10.8H18.8V17.8ZM18.8 8.80005H2.79999V5.80005C2.79999 5.53483 2.90534 5.28048 3.09288 5.09294C3.28042 4.90541 3.53477 4.80005 3.79999 4.80005H5.79999V5.80005C5.79999 6.06527 5.90534 6.31962 6.09288 6.50716C6.28042 6.69469 6.53477 6.80005 6.79999 6.80005C7.0652 6.80005 7.31956 6.69469 7.50709 6.50716C7.69463 6.31962 7.79999 6.06527 7.79999 5.80005V4.80005H13.8V5.80005C13.8 6.06527 13.9053 6.31962 14.0929 6.50716C14.2804 6.69469 14.5348 6.80005 14.8 6.80005C15.0652 6.80005 15.3196 6.69469 15.5071 6.50716C15.6946 6.31962 15.8 6.06527 15.8 5.80005V4.80005H17.8C18.0652 4.80005 18.3196 4.90541 18.5071 5.09294C18.6946 5.28048 18.8 5.53483 18.8 5.80005V8.80005Z" fill="black"/>
</svg>
