<svg width="24" height="24" viewBox="0 0 24 24" fill="none" xmlns="http://www.w3.org/2000/svg">
<path d="M20.083 10.5L21.285 11.221C21.3591 11.2654 21.4205 11.3283 21.4631 11.4035C21.5058 11.4787 21.5282 11.5636 21.5282 11.65C21.5282 11.7365 21.5058 11.8214 21.4631 11.8966C21.4205 11.9718 21.3591 12.0347 21.285 12.079L12 17.649L2.71498 12.079C2.64082 12.0347 2.57944 11.9718 2.53682 11.8966C2.4942 11.8214 2.4718 11.7365 2.4718 11.65C2.4718 11.5636 2.4942 11.4787 2.53682 11.4035C2.57944 11.3283 2.64082 11.2654 2.71498 11.221L3.91698 10.5L12 15.35L20.083 10.5ZM20.083 15.2L21.285 15.921C21.3591 15.9654 21.4205 16.0283 21.4631 16.1035C21.5058 16.1787 21.5282 16.2636 21.5282 16.35C21.5282 16.4365 21.5058 16.5214 21.4631 16.5966C21.4205 16.6718 21.3591 16.7347 21.285 16.779L12.515 22.041C12.3594 22.1345 12.1814 22.1839 12 22.1839C11.8185 22.1839 11.6405 22.1345 11.485 22.041L2.71498 16.779C2.64082 16.7347 2.57944 16.6718 2.53682 16.5966C2.4942 16.5214 2.4718 16.4365 2.4718 16.35C2.4718 16.2636 2.4942 16.1787 2.53682 16.1035C2.57944 16.0283 2.64082 15.9654 2.71498 15.921L3.91698 15.2L12 20.05L20.083 15.2ZM12.514 1.30905L21.285 6.57105C21.3591 6.61544 21.4205 6.6783 21.4631 6.75348C21.5058 6.82867 21.5282 6.91362 21.5282 7.00005C21.5282 7.08647 21.5058 7.17142 21.4631 7.24661C21.4205 7.3218 21.3591 7.38465 21.285 7.42905L12 12.999L2.71498 7.43005C2.64082 7.38565 2.57944 7.3228 2.53682 7.24761C2.4942 7.17242 2.4718 7.08747 2.4718 7.00105C2.4718 6.91462 2.4942 6.82967 2.53682 6.75448C2.57944 6.6793 2.64082 6.61644 2.71498 6.57205L11.485 1.31005C11.6405 1.2166 11.8185 1.16724 12 1.16724C12.1814 1.16724 12.3594 1.2166 12.515 1.31005" fill="black"/>
</svg>
